# xmcd
#
# Track frame offsets:
#	150
#	32005
#	61007
#	87062
#	106122
#	136742
#	162722
#	182980
#	199487
#	216273
#	238658
#	258986
#	280591
#	304703
#	326928
#	339275
#
# Disc length: 4786 seconds
#
# Revision: 0
# Processed by: cddbd v1.4PL0 Copyright (c) Steve Scherf et al.
# Submitted via: dBpowerAMP V4.0
#
DISCID=e412b010
DTITLE=Michael Jackson - Best Of Michael Jackson
DYEAR=2002
DGENRE=Blues
TTITLE0=We Are The World (featuring USA for Africa)
TTITLE1=Heal The World
TTITLE2=You Are Not Alone
TTITLE3=I Just Can't Stop Loving You
TTITLE4=Earth Song
TTITLE5=Stranger In Moscow
TTITLE6=Childhood (theme from Free Willy 2)
TTITLE7=She's Out Of My Life
TTITLE8=The Girl Is Mine (with Paul McCartney)
TTITLE9=Smile
TTITLE10=You Are My Life
TTITLE11=Heaven Can't Wait
TTITLE12=Man In The Mirror
TTITLE13=Billie Jean
TTITLE14=Ben
TTITLE15=Don't Walk Away
EXTD=
EXTT0=
EXTT1=
EXTT2=
EXTT3=
EXTT4=
EXTT5=
EXTT6=
EXTT7=
EXTT8=
EXTT9=
EXTT10=
EXTT11=
EXTT12=
EXTT13=
EXTT14=
EXTT15=
PLAYORDER=
